<svg width="25" height="8" viewBox="0 0 25 8" fill="none" xmlns="http://www.w3.org/2000/svg">
<g clip-path="url(#clip0_1_1512)">
<path d="M3.58107 2.04395L0.228027 7.69341H1.76953L3.65901 4.51007L3.91167 4.89568L4.9703 6.51183L5.69231 5.28609L3.58107 2.04395Z" fill="#002551"/>
<path d="M2.24805 7.69382H4.26108L6.71233 3.56839L9.40755 7.69382H11.431L6.62184 0.338867L2.24805 7.69382Z" fill="#002551"/>
<path d="M4.74365 7.69324L5.74293 6.01097L6.2077 6.72037L7.2007 5.05273L8.92826 7.69324H4.74365Z" fill="#3399FF"/>
<path d="M19.753 3.50079C19.753 3.92123 19.9434 4.32906 20.3532 4.32906C20.6994 4.32906 20.7974 4.17385 20.8783 3.97322H21.7035C21.5998 4.38079 21.2706 5.0536 20.3358 5.0536C19.3491 5.0536 18.9219 4.2319 18.9219 3.3519C18.9219 2.29726 19.4009 1.54672 20.3645 1.54672C21.386 1.54672 21.7378 2.3813 21.7378 3.21587C21.7378 3.33221 21.7378 3.40338 21.7262 3.50054H19.7528L19.753 3.50079ZM20.9072 2.93145C20.9014 2.54332 20.7629 2.21322 20.359 2.21322C19.955 2.21322 19.8049 2.51732 19.7704 2.93145H20.9072Z" fill="#002551"/>
<path d="M22.927 3.96665C22.9905 4.23845 23.1867 4.38709 23.4926 4.38709C23.7986 4.38709 23.9082 4.26419 23.9082 4.05725C23.9082 3.85031 23.7812 3.75971 23.3541 3.64312C22.379 3.37132 22.2231 3.03492 22.2231 2.56274C22.2231 2.09056 22.5288 1.54697 23.4292 1.54697C24.3295 1.54697 24.6468 2.10343 24.6698 2.55618H23.885C23.8561 2.43328 23.7812 2.20034 23.3944 2.20034C23.1232 2.20034 23.0308 2.33611 23.0308 2.48501C23.0308 2.65334 23.1232 2.73082 23.6077 2.86028C24.6061 3.11921 24.7504 3.50078 24.7504 3.99264C24.7504 4.54911 24.3696 5.05384 23.4634 5.05384C22.5573 5.05384 22.1823 4.56223 22.1131 3.9669H22.9268L22.927 3.96665Z" fill="#002551"/>
<path d="M11.4312 5.05316L11.4317 0.338715H12.5232L13.2572 2.60319L13.9816 0.338715H15.026V5.05316H14.0907L14.0936 2.37556L13.6045 3.92509H12.8405L12.3446 2.30591L12.3644 5.05316H11.4312Z" fill="#002551"/>
<path d="M15.744 5.05315V1.60962H16.6849V5.05315H15.744ZM15.744 1.23814V0.338959H16.6849V1.23814H15.744Z" fill="#002551"/>
<path d="M18.3419 0.338959H17.4042V5.05315H18.3419V0.338959Z" fill="#002551"/>
<path d="M13.1587 6.02063H14.4073V6.37722H13.6257V6.64271H14.3506V6.98341H13.6257V7.31274H14.4297V7.69104H13.1587V6.02063Z" fill="#002551"/>
<path d="M15.4539 7.08284C15.4539 6.98795 15.4358 6.91703 15.3993 6.87035C15.3629 6.82366 15.317 6.80019 15.2615 6.80019C15.2128 6.80019 15.172 6.82265 15.1392 6.86732C15.1064 6.91224 15.0897 6.98744 15.0897 7.09293C15.0897 7.19161 15.1066 7.26404 15.1406 7.30997C15.1747 7.3559 15.2166 7.37886 15.2666 7.37886C15.3202 7.37886 15.3646 7.35565 15.4003 7.30921C15.436 7.26277 15.4539 7.18732 15.4539 7.08259M15.8735 6.02088V7.69129H15.4816V7.51236C15.4268 7.58833 15.3766 7.63956 15.3315 7.66606C15.2712 7.70088 15.2041 7.71855 15.13 7.71855C14.9811 7.71855 14.8675 7.65596 14.789 7.53053C14.7106 7.40511 14.6713 7.25293 14.6713 7.0735C14.6713 6.87287 14.7147 6.71943 14.8013 6.61318C14.888 6.50694 14.9983 6.45369 15.1319 6.45369C15.1971 6.45369 15.2562 6.4658 15.3093 6.49028C15.3624 6.51451 15.4097 6.5511 15.4507 6.59956V6.02063H15.8735V6.02088Z" fill="#002551"/>
<path d="M17.3408 7.69166H16.9498V7.49557C16.8917 7.57608 16.8328 7.63337 16.7734 7.66769C16.7141 7.70176 16.6412 7.71892 16.5548 7.71892C16.4397 7.71892 16.3492 7.68081 16.2838 7.60434C16.2184 7.52788 16.1856 7.41053 16.1856 7.25179V6.48157H16.6062V7.14706C16.6062 7.22302 16.619 7.27702 16.6443 7.30882C16.6697 7.34062 16.7054 7.35677 16.7512 7.35677C16.8014 7.35677 16.8422 7.33557 16.8741 7.29292C16.9059 7.25027 16.9218 7.17406 16.9218 7.06378V6.48157H17.3405V7.69166H17.3408Z" fill="#002551"/>
<path d="M18.4694 7.21788L18.8673 7.2681C18.8454 7.35996 18.8094 7.43946 18.7592 7.50684C18.7093 7.57397 18.6453 7.62621 18.5674 7.66356C18.4894 7.70066 18.3907 7.71933 18.2706 7.71933C18.1504 7.71933 18.0582 7.70747 17.981 7.6835C17.9038 7.65952 17.8374 7.62091 17.7819 7.56741C17.7264 7.51391 17.6827 7.45107 17.6513 7.37889C17.6197 7.30672 17.604 7.21107 17.604 7.09195C17.604 6.97284 17.6231 6.86381 17.6617 6.78104C17.69 6.72022 17.7281 6.66596 17.7768 6.6175C17.8256 6.5693 17.8755 6.53347 17.9269 6.51C18.0085 6.4729 18.113 6.45422 18.2406 6.45422C18.419 6.45422 18.5548 6.48955 18.6485 6.56022C18.7421 6.63088 18.8077 6.7341 18.8454 6.87012L18.4515 6.92817C18.4392 6.87643 18.4168 6.83757 18.3842 6.81132C18.3516 6.78508 18.308 6.77195 18.2532 6.77195C18.1839 6.77195 18.1279 6.79946 18.085 6.85448C18.042 6.90949 18.0208 6.99277 18.0208 7.10407C18.0208 7.2035 18.042 7.27896 18.0845 7.33044C18.127 7.38192 18.1813 7.40791 18.2471 7.40791C18.3019 7.40791 18.348 7.39227 18.3854 7.36123C18.4228 7.33019 18.4506 7.28224 18.4692 7.21763" fill="#002551"/>
<path d="M19.834 7.11744C19.7763 7.14015 19.7165 7.16034 19.654 7.17776C19.569 7.20299 19.515 7.22747 19.4925 7.25195C19.4691 7.27694 19.4575 7.30545 19.4575 7.3375C19.4575 7.37385 19.4691 7.40388 19.492 7.42709C19.515 7.45031 19.5487 7.46192 19.5934 7.46192C19.638 7.46192 19.6834 7.4493 19.7235 7.42432C19.7635 7.39933 19.792 7.3688 19.8089 7.33271C19.8258 7.29662 19.8342 7.24968 19.8342 7.19189V7.11795L19.834 7.11744ZM19.4708 6.87366L19.0707 6.82697C19.0859 6.74949 19.1076 6.68867 19.1361 6.644C19.1646 6.59959 19.2056 6.56097 19.2589 6.52842C19.2973 6.50495 19.3501 6.48653 19.4172 6.47366C19.4846 6.46078 19.5572 6.45422 19.6354 6.45422C19.7609 6.45422 19.8617 6.46205 19.9377 6.47769C20.0138 6.49334 20.0772 6.52564 20.1279 6.57511C20.1636 6.60918 20.1916 6.65763 20.2124 6.72047C20.2329 6.78306 20.2432 6.84287 20.2432 6.8999V7.43441C20.2432 7.49145 20.2466 7.53612 20.2531 7.56842C20.2597 7.60072 20.2739 7.64186 20.2958 7.69208H19.903C19.8873 7.66104 19.8769 7.63731 19.8721 7.62091C19.8673 7.60451 19.8624 7.57902 19.8576 7.54394C19.8028 7.60249 19.7483 7.64413 19.694 7.66937C19.6199 7.70268 19.534 7.71959 19.4358 7.71959C19.3055 7.71959 19.2066 7.68627 19.139 7.6194C19.0714 7.55252 19.0376 7.47 19.0376 7.37208C19.0376 7.28022 19.062 7.20451 19.1108 7.1452C19.1595 7.08589 19.2493 7.04198 19.3803 7.01296C19.5374 6.97813 19.6392 6.95366 19.6858 6.93952C19.7324 6.92539 19.7819 6.90697 19.834 6.88425C19.834 6.82722 19.8234 6.78735 19.8021 6.76463C19.7809 6.74192 19.7435 6.73056 19.6902 6.73056C19.6216 6.73056 19.5702 6.74268 19.5357 6.7669C19.5089 6.78583 19.4875 6.82167 19.471 6.87391L19.4708 6.87366Z" fill="#002551"/>
<path d="M20.9935 6.02087V6.48119H21.2239V6.82087H20.9935V7.24964C20.9935 7.30113 20.9978 7.3352 21.007 7.35185C21.0207 7.37759 21.0446 7.39046 21.0789 7.39046C21.1098 7.39046 21.153 7.38062 21.2085 7.36094L21.2394 7.68119C21.1358 7.70617 21.0391 7.71879 20.9493 7.71879C20.8451 7.71879 20.7683 7.7039 20.7188 7.67438C20.6694 7.64485 20.6329 7.59993 20.6093 7.53961C20.5856 7.4793 20.5738 7.38163 20.5738 7.24662V6.82113H20.4196V6.48144H20.5738V6.25936L20.9935 6.02113V6.02087Z" fill="#002551"/>
<path d="M21.4686 6.48119H21.8873V7.69128H21.4686V6.48119ZM21.4686 6.02087H21.8873V6.33658H21.4686V6.02087Z" fill="#002551"/>
<path d="M22.5527 7.08892C22.5527 7.19668 22.5725 7.27643 22.6119 7.32817C22.6512 7.3799 22.7009 7.40564 22.7605 7.40564C22.8201 7.40564 22.8703 7.38015 22.9092 7.32943C22.9478 7.27845 22.9673 7.19694 22.9673 7.08438C22.9673 6.97965 22.9478 6.90142 22.9087 6.85019C22.8696 6.79896 22.8213 6.77321 22.7637 6.77321C22.7026 6.77321 22.6522 6.79921 22.6126 6.8512C22.5728 6.90318 22.553 6.98243 22.553 7.08892M22.1331 7.08993C22.1331 6.90545 22.1893 6.75328 22.3018 6.63366C22.4142 6.51403 22.566 6.45422 22.7574 6.45422C22.976 6.45422 23.1413 6.52438 23.253 6.66495C23.3428 6.77801 23.3877 6.91757 23.3877 7.08312C23.3877 7.26937 23.3319 7.42179 23.2205 7.54066C23.109 7.65952 22.955 7.71908 22.7581 7.71908C22.5827 7.71908 22.4408 7.66962 22.3324 7.57094C22.1995 7.44855 22.1329 7.28829 22.1329 7.09019L22.1331 7.08993Z" fill="#002551"/>
<path d="M23.6197 6.48173H24.0094V6.67883C24.0675 6.59832 24.1267 6.54079 24.1863 6.50621C24.2459 6.47164 24.3185 6.45422 24.4044 6.45422C24.5203 6.45422 24.611 6.49233 24.6764 6.5688C24.7418 6.64526 24.7746 6.76312 24.7746 6.92261V7.69183H24.354V7.02634C24.354 6.95037 24.3412 6.89662 24.3159 6.86508C24.2905 6.83353 24.2548 6.81788 24.209 6.81788C24.1583 6.81788 24.117 6.83908 24.0856 6.88173C24.054 6.92438 24.0384 7.0006 24.0384 7.11088V7.69208H23.6197V6.48198V6.48173Z" fill="#002551"/>
</g>
<defs>
<clipPath id="clip0_1_1512">
<rect width="25" height="8" fill="white"/>
</clipPath>
</defs>
</svg>
